<svg width="700" height="162" viewBox="0 0 700 162" fill="none" xmlns="http://www.w3.org/2000/svg">
<g clip-path="url(#clip0_14_10)">
<path d="M114.358 54.1584L93.03 75.4869C90.8942 77.7156 85.6249 78.1977 80.5119 78.1655C75.3986 78.1977 70.1292 77.7156 67.9937 75.4869L46.665 54.1584L19.8242 80.9996L46.665 107.84L67.9937 86.512C70.1292 84.2835 75.3986 83.8014 80.5119 83.8339C85.6249 83.8014 90.8942 84.2835 93.03 86.512L114.358 107.84L141.2 80.9996L114.358 54.1584Z" fill="#FD972B"/>
<path d="M80.5127 141.689L53.672 114.848L80.5127 88.0073L107.353 114.848L80.5127 141.689Z" fill="#FD972B"/>
<path d="M80.5107 20.3115L107.351 47.1522L80.5107 73.9929L53.67 47.1522L80.5107 20.3115Z" fill="#FD972B"/>
<path d="M152.901 72.8777C151.348 72.8777 149.896 73.3166 148.661 74.0756L87.4358 12.8504C88.1951 11.6153 88.6337 10.1631 88.6337 8.61028C88.6337 4.13178 84.9899 0.488281 80.5114 0.488281C76.0329 0.488281 72.3894 4.13178 72.3894 8.61028C72.3894 10.1631 72.828 11.6153 73.587 12.8504L12.3618 74.0753C11.1267 73.3163 9.67481 72.8777 8.122 72.8777C3.6435 72.8777 0 76.5212 0 80.9997C0 85.4782 3.6435 89.122 8.122 89.122C9.67514 89.122 11.1274 88.6831 12.3624 87.9241L73.5877 149.149C72.8283 150.384 72.3894 151.837 72.3894 153.389C72.3894 157.868 76.0329 161.512 80.5114 161.512C84.9899 161.512 88.6337 157.868 88.6337 153.389C88.6337 151.837 88.1952 150.384 87.4362 149.149L148.661 87.9238C149.896 88.6831 151.349 89.1217 152.901 89.1217C157.38 89.1217 161.023 85.4778 161.023 80.9993C161.023 76.5208 157.38 72.8777 152.901 72.8777ZM80.5114 145.267C78.9586 145.267 77.5067 145.706 76.2716 146.465L15.0464 85.2395C15.8054 84.0044 16.244 82.5525 16.244 80.9997C16.244 79.4465 15.8051 77.9943 15.0461 76.7592L76.2713 15.5344C77.5064 16.2933 78.9583 16.7323 80.5114 16.7323C82.0646 16.7323 83.5165 16.2937 84.7515 15.5344L145.977 76.7596C145.218 77.9946 144.779 79.4469 144.779 80.9997C144.779 82.5525 145.218 84.005 145.977 85.2398L84.7522 146.466C83.5171 145.706 82.0646 145.267 80.5114 145.267ZM80.5114 3.65102C83.2459 3.65102 85.4707 5.87547 85.4707 8.60991C85.4707 11.3444 83.2462 13.5688 80.5114 13.5688C77.7773 13.5688 75.5525 11.3444 75.5525 8.60991C75.5525 5.87547 77.7773 3.65102 80.5114 3.65102ZM3.16307 80.9997C3.16307 78.2652 5.38755 76.0407 8.122 76.0407C10.8564 76.0407 13.0809 78.2652 13.0809 80.9997C13.0809 83.7341 10.8564 85.9589 8.122 85.9589C5.38755 85.9589 3.16307 83.7344 3.16307 80.9997ZM80.5114 158.349C77.7773 158.349 75.5525 156.124 75.5525 153.389C75.5525 150.655 77.777 148.43 80.5114 148.43C83.2459 148.43 85.4707 150.655 85.4707 153.389C85.4707 156.124 83.2462 158.349 80.5114 158.349ZM152.901 85.9589C150.167 85.9589 147.942 83.7344 147.942 80.9997C147.942 78.2652 150.167 76.0407 152.901 76.0407C155.636 76.0407 157.86 78.2652 157.86 80.9997C157.86 83.7344 155.636 85.9589 152.901 85.9589Z" fill="#1D215E"/>
<path d="M255.721 64.8864C255.721 68.2177 255.085 71.3525 253.812 74.2907C252.539 77.2289 250.808 79.7929 248.619 81.9825C246.429 84.1722 243.874 85.9033 240.955 87.1759C238.035 88.4486 234.91 89.0849 231.579 89.0849H223.494C222.371 89.0849 221.323 89.2907 220.35 89.7025C219.377 90.1142 218.525 90.685 217.795 91.4149C217.065 92.1448 216.494 92.9963 216.083 93.9695C215.671 94.9426 215.465 95.9907 215.465 97.1136V105.142H253.531V121.256H199.352V97.1136C199.352 93.7823 199.988 90.6476 201.26 87.7093C202.533 84.7711 204.264 82.2071 206.454 80.0175C208.644 77.8278 211.198 76.106 214.118 74.8521C217.037 73.5982 220.163 72.9713 223.494 72.9713H231.579C232.702 72.9713 233.75 72.7654 234.723 72.3537C235.696 71.942 236.548 71.3712 237.277 70.6413C238.007 69.9114 238.578 69.0505 238.99 68.0586C239.402 67.0667 239.607 66.0093 239.607 64.8864C239.607 63.7635 239.402 62.7155 238.99 61.7423C238.578 60.7691 238.007 59.9176 237.277 59.1877C236.548 58.4578 235.696 57.887 234.723 57.4753C233.75 57.0636 232.702 56.8577 231.579 56.8577H202.833V40.7441H231.579C234.91 40.7441 238.035 41.3804 240.955 42.6531C243.874 43.9257 246.429 45.6568 248.619 47.8465C250.808 50.0361 252.539 52.5907 253.812 55.5102C255.085 58.4298 255.721 61.5552 255.721 64.8864ZM292.015 121.256H275.902V56.8577H267.873V40.7441H292.015V121.256ZM410.98 97.1136C410.98 100.445 410.343 103.57 409.071 106.49C407.798 109.409 406.067 111.964 403.877 114.154C401.688 116.343 399.133 118.074 396.213 119.347C393.294 120.62 390.169 121.256 386.837 121.256H346.581V40.7441H386.837C390.169 40.7441 393.294 41.3804 396.213 42.6531C399.133 43.9257 401.688 45.6568 403.877 47.8465C406.067 50.0361 407.798 52.5907 409.071 55.5102C410.343 58.4298 410.98 61.5552 410.98 64.8864C410.98 66.3836 410.774 67.9183 410.362 69.4903C409.95 71.0624 409.37 72.5783 408.621 74.038C407.873 75.4978 406.975 76.8266 405.927 78.0243C404.878 79.2221 403.718 80.214 402.446 81C403.756 81.7112 404.935 82.675 405.983 83.8915C407.031 85.1079 407.929 86.4461 408.678 87.9058C409.426 89.3656 409.997 90.8909 410.39 92.4816C410.783 94.0724 410.98 95.6164 410.98 97.1136ZM362.695 105.142H386.837C387.96 105.142 389.008 104.936 389.981 104.525C390.955 104.113 391.806 103.542 392.536 102.812C393.266 102.082 393.837 101.231 394.248 100.258C394.66 99.2845 394.866 98.2365 394.866 97.1136C394.866 95.9907 394.66 94.9426 394.248 93.9695C393.837 92.9963 393.266 92.1448 392.536 91.4149C391.806 90.685 390.955 90.1142 389.981 89.7025C389.008 89.2907 387.96 89.0849 386.837 89.0849H362.695V105.142ZM362.695 72.9713H386.837C387.96 72.9713 389.008 72.7654 389.981 72.3537C390.955 71.942 391.806 71.3712 392.536 70.6413C393.266 69.9114 393.837 69.0505 394.248 68.0586C394.66 67.0667 394.866 66.0093 394.866 64.8864C394.866 63.7635 394.66 62.7155 394.248 61.7423C393.837 60.7691 393.266 59.9176 392.536 59.1877C391.806 58.4578 390.955 57.887 389.981 57.4753C389.008 57.0636 387.96 56.8577 386.837 56.8577H362.695V72.9713ZM462.826 121.256H446.769V96.0468C443.213 95.1485 439.947 93.7075 436.971 91.7237C433.996 89.7399 431.441 87.3725 429.307 84.6214C427.174 81.8703 425.518 78.8197 424.339 75.4697C423.16 72.1198 422.57 68.592 422.57 64.8864V40.7441H438.684V64.8864C438.684 67.0948 439.105 69.1815 439.947 71.1466C440.789 73.1117 441.94 74.8241 443.4 76.2838C444.86 77.7436 446.572 78.8946 448.537 79.7367C450.502 80.5789 452.589 81 454.797 81C457.006 81 459.092 80.5789 461.057 79.7367C463.022 78.8946 464.735 77.7436 466.195 76.2838C467.654 74.8241 468.805 73.1117 469.648 71.1466C470.49 69.1815 470.911 67.0948 470.911 64.8864V40.7441H486.968V64.8864C486.968 68.592 486.379 72.1198 485.2 75.4697C484.021 78.8197 482.364 81.8703 480.231 84.6214C478.097 87.3725 475.552 89.7399 472.595 91.7237C469.638 93.7075 466.382 95.1485 462.826 96.0468V121.256ZM535.165 121.256H519.108V56.8577H494.909V40.7441H559.308V56.8577H535.165V121.256ZM626.481 121.256H571.291V40.7441H626.481V56.8577H587.405V72.9713H613.849V89.0849H587.405V105.142H626.481V121.256ZM635.602 64.8864C635.602 61.5552 636.238 58.4298 637.511 55.5102C638.783 52.5907 640.514 50.0361 642.704 47.8465C644.894 45.6568 647.448 43.9257 650.368 42.6531C653.287 41.3804 656.413 40.7441 659.744 40.7441H696.687V56.8577H659.744C658.621 56.8577 657.573 57.0636 656.6 57.4753C655.627 57.887 654.775 58.4578 654.045 59.1877C653.315 59.9176 652.745 60.7691 652.333 61.7423C651.921 62.7155 651.715 63.7635 651.715 64.8864C651.715 66.0093 651.921 67.0667 652.333 68.0586C652.745 69.0505 653.315 69.9114 654.045 70.6413C654.775 71.3712 655.627 71.942 656.6 72.3537C657.573 72.7654 658.621 72.9713 659.744 72.9713H675.858C679.189 72.9713 682.324 73.5982 685.262 74.8521C688.2 76.106 690.764 77.8278 692.954 80.0175C695.143 82.2071 696.865 84.7711 698.119 87.7093C699.373 90.6476 700 93.7823 700 97.1136C700 100.445 699.373 103.57 698.119 106.49C696.865 109.409 695.143 111.964 692.954 114.154C690.764 116.343 688.2 118.074 685.262 119.347C682.324 120.62 679.189 121.256 675.858 121.256H640.093V105.142H675.858C676.981 105.142 678.029 104.936 679.002 104.525C679.975 104.113 680.826 103.542 681.556 102.812C682.286 102.082 682.857 101.231 683.269 100.258C683.68 99.2845 683.886 98.2365 683.886 97.1136C683.886 95.9907 683.68 94.9426 683.269 93.9695C682.857 92.9963 682.286 92.1448 681.556 91.4149C680.826 90.685 679.975 90.1142 679.002 89.7025C678.029 89.2907 676.981 89.0849 675.858 89.0849H659.744C656.413 89.0849 653.287 88.4486 650.368 87.1759C647.448 85.9033 644.894 84.1722 642.704 81.9825C640.514 79.7929 638.783 77.2289 637.511 74.2907C636.238 71.3525 635.602 68.2177 635.602 64.8864Z" fill="#1D215E"/>
</g>
<defs>
<clipPath id="clip0_14_10">
<rect width="700" height="161.02" fill="white"/>
</clipPath>
</defs>
</svg>
